<svg width="20" height="20" viewBox="0 0 20 20" fill="none" xmlns="http://www.w3.org/2000/svg">
<path d="M10.0022 4.87312C7.16453 4.87312 4.87563 7.16202 4.87563 9.99972C4.87563 12.8374 7.16453 15.1263 10.0022 15.1263C12.8399 15.1263 15.1288 12.8374 15.1288 9.99972C15.1288 7.16202 12.8399 4.87312 10.0022 4.87312ZM10.0022 13.3327C8.16843 13.3327 6.66927 11.838 6.66927 9.99972C6.66927 8.16146 8.16397 6.66676 10.0022 6.66676C11.8405 6.66676 13.3352 8.16146 13.3352 9.99972C13.3352 11.838 11.836 13.3327 10.0022 13.3327ZM16.5343 4.66341C16.5343 5.32822 15.9989 5.85918 15.3385 5.85918C14.6737 5.85918 14.1428 5.32376 14.1428 4.66341C14.1428 4.00307 14.6782 3.46765 15.3385 3.46765C15.9989 3.46765 16.5343 4.00307 16.5343 4.66341ZM19.9297 5.87702C19.8539 4.27524 19.488 2.85639 18.3146 1.6874C17.1456 0.518406 15.7267 0.152539 14.1249 0.0722264C12.4741 -0.0214713 7.52593 -0.0214713 5.87507 0.0722264C4.27775 0.148077 2.8589 0.513944 1.68544 1.68293C0.511991 2.85193 0.150586 4.27078 0.0702733 5.87256C-0.0234244 7.52343 -0.0234244 12.4716 0.0702733 14.1224C0.146124 15.7242 0.511991 17.1431 1.68544 18.312C2.8589 19.481 4.27328 19.8469 5.87507 19.9272C7.52593 20.0209 12.4741 20.0209 14.1249 19.9272C15.7267 19.8514 17.1456 19.4855 18.3146 18.312C19.4835 17.1431 19.8494 15.7242 19.9297 14.1224C20.0234 12.4716 20.0234 7.52789 19.9297 5.87702ZM17.797 15.8938C17.449 16.7683 16.7752 17.442 15.8963 17.7945C14.58 18.3165 11.4568 18.196 10.0022 18.196C8.54769 18.196 5.41997 18.312 4.1082 17.7945C3.23369 17.4465 2.55996 16.7727 2.20747 15.8938C1.68544 14.5775 1.80591 11.4543 1.80591 9.99972C1.80591 8.54518 1.68991 5.41746 2.20747 4.10569C2.55549 3.23118 3.22922 2.55745 4.1082 2.20496C5.42443 1.68293 8.54769 1.8034 10.0022 1.8034C11.4568 1.8034 14.5845 1.6874 15.8963 2.20496C16.7708 2.55298 17.4445 3.22672 17.797 4.10569C18.319 5.42192 18.1985 8.54518 18.1985 9.99972C18.1985 11.4543 18.319 14.582 17.797 15.8938Z" fill="white"/>
</svg>
