<svg width="20" height="20" viewBox="0 0 20 20" fill="none" xmlns="http://www.w3.org/2000/svg">
<path d="M4.93709 19.1669H1.1362V6.92695H4.93709V19.1669ZM3.0346 5.25731C1.8192 5.25731 0.833374 4.25061 0.833374 3.03521C0.833374 2.45141 1.06529 1.89152 1.4781 1.47871C1.89091 1.0659 2.4508 0.833984 3.0346 0.833984C3.6184 0.833984 4.17829 1.0659 4.5911 1.47871C5.00391 1.89152 5.23583 2.45141 5.23583 3.03521C5.23583 4.25061 4.24959 5.25731 3.0346 5.25731ZM19.1626 19.1669H15.3699V13.2086C15.3699 11.7886 15.3413 9.9675 13.3938 9.9675C11.4176 9.9675 11.1148 11.5103 11.1148 13.1063V19.1669H7.31797V6.92695H10.9634V8.5966H11.0166C11.524 7.63491 12.7635 6.62003 14.6128 6.62003C18.4596 6.62003 19.1667 9.15314 19.1667 12.4433V19.1669H19.1626Z" fill="white"/>
</svg>
